Coordinates
version=1
nRows=29
nColumns=24
inDegrees=yes

Units are S.I. units (second, meters, Newtons, ...)
Angles are in degrees.

endheader
time	pelvis_tilt	pelvis_list	pelvis_rotation	pelvis_tx	pelvis_ty	pelvis_tz	hip_flexion_r	hip_adduction_r	hip_rotation_r	knee_angle_r	ankle_angle_r	subtalar_angle_r	mtp_angle_r	hip_flexion_l	hip_adduction_l	hip_rotation_l	knee_angle_l	ankle_angle_l	subtalar_angle_l	mtp_angle_l	lumbar_extension	lumbar_bending	lumbar_rotation
      1.23216667	      1.08970979	      8.34688184	     -1.78164988	      0.17699396	      1.00898371	      0.25798140	     14.17576289	    -11.93926034	     -4.50793952	    -68.89788314	     -7.95966586	    -16.48451413	      2.39467361	      7.03778924	     13.32280353	      6.78776912	    -13.16261713	      3.74395203	    -16.30745300	     -1.04940826	    -16.08410159	     -2.67889231	     -1.67933048
      1.23633333	      1.08603272	      8.17546433	     -1.96905935	      0.18201136	      1.00984995	      0.25797024	     14.74880793	    -11.64962626	     -4.33780730	    -68.54572338	     -7.10678558	    -16.51679002	      2.35887752	      6.52530575	     13.13439889	      6.75372746	    -12.74394818	      3.77015047	    -16.34876474	     -1.08237676	    -16.08328170	     -2.41791877	     -1.75896608
      1.24050000	      1.12244389	      8.01750628	     -2.15807432	      0.18706729	      1.01076577	      0.25797015	     15.25334705	    -11.37627732	     -4.17574775	    -68.11622427	     -6.22746445	    -16.39945626	      2.30571086	      5.94307859	     12.96361763	      6.74630980	    -12.27302929	      3.78845984	    -16.40246488	     -1.13278224	    -16.10785742	     -2.18941934	     -1.87760647
      1.24466667	      1.14954121	      7.85052149	     -2.32906156	      0.19212599	      1.01164945	      0.25795691	     15.74066459	    -11.08891595	     -4.03381509	    -67.61164503	     -5.36360595	    -16.32464999	      2.23733188	      5.37154359	     12.78558986	      6.74002004	    -11.80950852	      3.79962449	    -16.47374028	     -1.20005298	    -16.11064419	     -1.95106391	     -1.99167120
      1.24883333	      1.15067150	      7.66736086	     -2.49768527	      0.19716398	      1.01248000	      0.25796256	     16.23779333	    -10.76761881	     -3.88176303	    -67.03702343	     -4.53574275	    -16.26901583	      2.17355202	      4.83492141	     12.58921398	      6.72233775	    -11.36058667	      3.81431741	    -16.51918575	     -1.26835284	    -16.10470651	     -1.68673061	     -2.08975463
      1.25300000	      1.15192843	      7.47195437	     -2.66156236	      0.20218845	      1.01329933	      0.25800161	     16.70940061	    -10.41736340	     -3.72639387	    -66.38710590	     -3.72787435	    -16.28986723	      2.14712217	      4.30892820	     12.37565123	      6.66262604	    -10.93339460	      3.82421043	    -16.53084539	     -1.30762244	    -16.10661105	     -1.42438117	     -2.16005194
      1.25716667	      1.19011563	      7.30306466	     -2.82524771	      0.20723925	      1.01411079	      0.25799718	     17.12756265	    -10.11415986	     -3.58596936	    -65.68902771	     -2.91348284	    -16.13468662	      2.08543042	      3.71386720	     12.20029911	      6.66617345	    -10.44666118	      3.84394946	    -16.56949297	     -1.38615467	    -16.13798572	     -1.17165199	     -2.28384379
      1.26133333	      1.19846906	      7.11771866	     -2.97953185	      0.21227212	      1.01486857	      0.25802415	     17.55309751	     -9.77438323	     -3.43915725	    -64.91870637	     -2.14076715	    -16.07342686	      2.02829463	      3.16572133	     12.00323637	      6.63495458	     -9.99086411	      3.84902370	    -16.59972279	     -1.46366715	    -16.14218623	     -0.91085724	     -2.37899816
      1.26550000	      1.17078551	      6.91763591	     -3.12132492	      0.21729549	      1.01555563	      0.25807034	     17.99089344	     -9.40288273	     -3.28947835	    -64.07791381	     -1.39751582	    -16.06828656	      2.00246180	      2.67442923	     11.78781808	      6.57321047	     -9.57644293	      3.85997991	    -16.60146705	     -1.50914385	    -16.10738664	     -0.65396640	     -2.44506350
      1.26966667	      1.19403711	      6.74071274	     -3.26833945	      0.22233975	      1.01625343	      0.25809274	     18.36050102	     -9.07255325	     -3.14757827	    -63.19188127	     -0.66886352	    -15.93353668	      1.94394203	      2.10112999	     11.60335407	      6.55345132	     -9.10420583	      3.88317640	    -16.61080591	     -1.59704545	    -16.13143677	     -0.38759618	     -2.56628109
      1.27383333	      1.16134154	      6.55364013	     -3.40285398	      0.22735225	      1.01684479	      0.25813720	     18.76992895	     -8.71049513	     -2.99369201	    -62.24604017	      0.02269823	    -15.92635582	      1.92134606	      1.61865551	     11.40332671	      6.47844452	     -8.69269007	      3.89059461	    -16.60290065	     -1.64209097	    -16.09648816	     -0.12938245	     -2.62841113
      1.27800000	      1.20268608	      6.36701429	     -3.53504192	      0.23239748	      1.01750932	      0.25817431	     19.06898370	     -8.36411613	     -2.85841397	    -61.23184942	      0.67887793	    -15.79517607	      1.85142710	      1.02858174	     11.21065640	      6.45779276	     -8.23003447	      3.91577749	    -16.59838052	     -1.75164602	    -16.14238541	      0.12761791	     -2.76267723
      1.28216667	      1.18764765	      6.18712366	     -3.66051980	      0.23742577	      1.01802982	      0.25821677	     19.41804185	     -8.01289446	     -2.70959454	    -60.17800496	      1.28395288	    -15.72629633	      1.78305755	      0.51989617	     11.02225397	      6.40253570	     -7.80775933	      3.93981027	    -16.58721110	     -1.86136759	    -16.12522104	      0.38126137	     -2.85774129
      1.28633333	      1.13887501	      6.00500462	     -3.77654462	      0.24243970	      1.01847818	      0.25826956	     19.78198224	     -7.64980755	     -2.55367631	    -59.06718189	      1.85404349	    -15.68689095	      1.75895287	      0.06525880	     10.82889168	      6.31827745	     -7.42070793	      3.95900715	    -16.56194931	     -1.91169153	    -16.06696020	      0.62466095	     -2.91634075
      1.29050000	      1.16965734	      5.84056051	     -3.89610557	      0.24748293	      1.01896852	      0.25830687	     20.04262905	     -7.32423208	     -2.40980936	    -57.91239841	      2.36777123	    -15.58826475	      1.70574167	     -0.50074163	     10.66187883	      6.26896404	     -6.98226296	      4.00394396	    -16.51858887	     -2.00674825	    -16.10450308	      0.86529379	     -3.03942238
      1.29466667	      1.14408095	      5.68862628	     -4.00273834	      0.25250813	      1.01932573	      0.25834784	     20.35042653	     -7.00227151	     -2.25403170	    -56.71906433	      2.84740123	    -15.52146773	      1.64717871	     -0.98541519	     10.50547524	      6.20854612	     -6.58510630	      4.03613819	    -16.48284251	     -2.11441445	    -16.07965173	      1.08391644	     -3.14843585
      1.29883333	      1.10060616	      5.54297285	     -4.10226765	      0.25752697	      1.01961170	      0.25839297	     20.66005561	     -6.68381511	     -2.09314995	    -55.48128771	      3.29489282	    -15.46382488	      1.62398173	     -1.43562373	     10.35512446	      6.12378690	     -6.21795917	      4.05957941	    -16.44601755	     -2.16758362	    -16.02440723	      1.29044222	     -3.21721237
      1.30300000	      1.07621691	      5.39571575	     -4.19780983	      0.26256479	      1.01987626	      0.25842966	     20.92849053	     -6.37279858	     -1.94581430	    -54.19888483	      3.68400626	    -15.39867411	      1.60228604	     -1.92040439	     10.20459270	      6.05244250	     -5.82334153	      4.09903062	    -16.39522729	     -2.21884390	    -16.01020248	      1.50533514	     -3.30822655
      1.30716667	      1.11939069	      5.26646348	     -4.28841937	      0.26760741	      1.02018180	      0.25846286	     21.10191996	     -6.09180837	     -1.80064509	    -52.86595660	      3.98945445	    -15.34416576	      1.55548434	     -2.48116752	     10.07976270	      6.00462979	     -5.42472395	      4.15320708	    -16.32711482	     -2.31817347	    -16.05557163	      1.69970169	     -3.46236072
      1.31133333	      1.06845225	      5.15591037	     -4.36925271	      0.27263448	      1.02028387	      0.25848589	     21.37202724	     -5.82217427	     -1.64107705	    -51.51643113	      4.31059167	    -15.27088212	      1.53437217	     -2.91338879	      9.97041518	      5.92890931	     -5.07752011	      4.17944984	    -16.28236716	     -2.37334312	    -15.99635910	      1.87384649	     -3.54642059
      1.31550000	      1.10070694	      5.04793828	     -4.44775456	      0.27768354	      1.02046284	      0.25850860	     21.52709882	     -5.57122510	     -1.49908159	    -50.11543926	      4.53638555	    -15.23101036	      1.48951871	     -3.45867633	      9.86942371	      5.88709897	     -4.68493644	      4.23238266	    -16.21562763	     -2.48012979	    -16.03925921	      2.04554531	     -3.70564341
      1.31966667	      1.03134593	      4.96256702	     -4.51429380	      0.28271864	      1.02044264	      0.25852854	     21.78391315	     -5.33536696	     -1.34495905	    -48.69435307	      4.77785473	    -15.14385196	      1.47201997	     -3.86328157	      9.78695678	      5.81463398	     -4.35182725	      4.25410649	    -16.16995701	     -2.53166992	    -15.95714136	      2.18897542	     -3.78968402
      1.32383333	      1.01422519	      4.88666809	     -4.57905411	      0.28776071	      1.02043412	      0.25853998	     21.96727861	     -5.12355505	     -1.20305924	    -47.23763942	      4.95612215	    -15.07089825	      1.45148050	     -4.33365649	      9.71879229	      5.75728159	     -3.99967457	      4.28699713	    -16.11437466	     -2.59089713	    -15.93843965	      2.32975962	     -3.91638660
      1.32800000	      1.00581969	      4.81795097	     -4.63713258	      0.29280329	      1.02040437	      0.25856025	     22.12001311	     -4.92376190	     -1.06882884	    -45.73931833	      5.09005043	    -15.00729512	      1.42947447	     -4.81438538	      9.65876579	      5.70936926	     -3.64442101	      4.31954358	    -16.05723104	     -2.65719652	    -15.93087196	      2.44814174	     -4.05807010
      1.33216667	      1.01555671	      4.76093790	     -4.69031223	      0.29784923	      1.02035110	      0.25856891	     22.23485725	     -4.74426142	     -0.93685952	    -44.20593017	      5.16608079	    -14.97209792	      1.39810706	     -5.31771335	      9.61368982	      5.68520188	     -3.28400681	      4.36573645	    -15.99621924	     -2.75624198	    -15.94242417	      2.56402388	     -4.23170597
      1.33633333	      0.95502842	      4.71854081	     -4.73639923	      0.30289417	      1.02014033	      0.25857030	     22.41487714	     -4.58002753	     -0.80943950	    -42.65554522	      5.27675568	    -14.84527559	      1.38337306	     -5.72170513	      9.58037850	      5.62619081	     -2.97014486	      4.37971417	    -15.94820640	     -2.81351254	    -15.86610727	      2.66711017	     -4.33308511
      1.34050000	      0.96482570	      4.69118211	     -4.78399613	      0.30794081	      1.01998328	      0.25858397	     22.49985383	     -4.44218208	     -0.68623544	    -41.06788969	      5.30132013	    -14.79083064	      1.35776017	     -6.21758915	      9.56809894	      5.60228248	     -2.62131733	      4.41887541	    -15.88804135	     -2.91366416	    -15.88221198	      2.74338732	     -4.51645762
      1.34466667	      0.93641734	      4.66586209	     -4.82487118	      0.31299869	      1.01973863	      0.25859522	     22.60456688	     -4.30900595	     -0.57320845	    -39.44677024	      5.32362488	    -14.68395636	      1.33670466	     -6.66089808	      9.55525064	      5.56114508	     -2.29782217	      4.44257583	    -15.83194923	     -3.01393558	    -15.84760257	      2.82249166	     -4.66104195
      1.34883333	      0.86192851	      4.65540384	     -4.85730476	      0.31805979	      1.01938144	      0.25859968	     22.74455912	     -4.19547405	     -0.47421807	    -37.80523391	      5.34489072	    -14.51726979	      1.32709149	     -7.03681519	      9.55560927	      5.50195592	     -2.01033235	      4.45663188	    -15.78333580	     -3.07196727	    -15.75823981	      2.88141964	     -4.76559864
